<svg xmlns="http://www.w3.org/2000/svg" width="26" height="22" viewBox="0 0 26 22">
    <g fill="current" fill-rule="evenodd">
        <path d="M15.343 15.257c1.572-.682 2.813-1.611 3.722-2.787.909-1.175 1.364-2.455 1.364-3.84 0-1.385-.455-2.665-1.365-3.84-.909-1.176-2.149-2.105-3.72-2.787C13.77 1.32 12.061.979 10.213.979c-1.847 0-3.557.341-5.129 1.024-1.571.682-2.812 1.611-3.721 2.787C.454 5.965 0 7.245 0 8.63c0 1.186.344 2.302 1.03 3.348.687 1.046 1.63 1.927 2.83 2.645-.097.239-.196.458-.298.657-.101.2-.222.391-.362.576-.14.184-.25.328-.327.433a5.88 5.88 0 0 1-.377.44c-.174.19-.286.314-.334.374 0-.01-.02.012-.058.067-.039.055-.06.08-.065.075-.005-.005-.025.02-.058.075l-.051.082-.036.074a.322.322 0 0 0-.03.09.611.611 0 0 0-.007.097.31.31 0 0 0 .015.097c.02.13.075.234.167.314.092.08.19.12.297.12h.044c.483-.07.9-.15 1.247-.24a12.038 12.038 0 0 0 4.034-1.913c.87.16 1.722.24 2.553.24 1.848 0 3.558-.341 5.13-1.024z"/>
        <path d="M24.97 15.81c.687-1.04 1.03-2.159 1.03-3.354 0-1.226-.363-2.372-1.088-3.438-.726-1.066-1.713-1.953-2.96-2.66.222.747.333 1.504.333 2.272 0 1.334-.323 2.6-.972 3.795-.648 1.195-1.577 2.251-2.786 3.168-1.122.837-2.398 1.48-3.83 1.928a14.918 14.918 0 0 1-4.483.672c-.29 0-.716-.02-1.277-.06 1.944 1.315 4.227 1.973 6.848 1.973.832 0 1.683-.08 2.554-.24 1.2.878 2.544 1.515 4.033 1.914.349.09.765.169 1.248.239a.429.429 0 0 0 .32-.105c.096-.08.16-.189.188-.328-.004-.06 0-.093.015-.098.014-.004.012-.037-.008-.097l-.029-.09-.036-.074a.72.72 0 0 0-.109-.157 1.638 1.638 0 0 1-.065-.074 10.305 10.305 0 0 0-.392-.44 5.9 5.9 0 0 1-.376-.441 45.716 45.716 0 0 0-.327-.434 3.786 3.786 0 0 1-.363-.575c-.101-.2-.2-.419-.297-.658 1.2-.717 2.142-1.597 2.829-2.638z"/>
    </g>
</svg>
