<svg xmlns="http://www.w3.org/2000/svg" width="24" height="24" viewBox="0 0 24 24">
    <path fill="current" fill-rule="evenodd" d="M23.794 9.944a.489.489 0 0 0-.326-.194l-2.84-.435a9.36 9.36 0 0 0-.636-1.52c.186-.26.465-.624.838-1.095.372-.47.636-.814.791-1.032a.598.598 0 0 0 .124-.357.5.5 0 0 0-.109-.34c-.372-.529-1.226-1.408-2.56-2.64a.599.599 0 0 0-.388-.154.504.504 0 0 0-.372.14l-2.204 1.66a9.597 9.597 0 0 0-1.397-.575L14.281.547a.46.46 0 0 0-.179-.333.586.586 0 0 0-.38-.132h-3.445c-.3 0-.486.144-.559.434-.134.517-.284 1.48-.45 2.886a8.882 8.882 0 0 0-1.412.59l-2.141-1.66a.66.66 0 0 0-.404-.155c-.227 0-.716.37-1.466 1.11-.75.74-1.26 1.295-1.529 1.667-.093.135-.14.254-.14.357 0 .125.052.249.156.373a35.332 35.332 0 0 1 1.66 2.142c-.258.475-.46.951-.605 1.427l-2.886.435a.468.468 0 0 0-.295.202.597.597 0 0 0-.124.356v3.445c0 .135.04.256.124.365a.489.489 0 0 0 .326.194l2.84.42c.144.506.356 1.018.636 1.535-.186.259-.466.624-.838 1.094-.372.471-.636.815-.792 1.032a.607.607 0 0 0-.016.714c.404.559 1.258 1.428 2.561 2.607.114.114.244.171.388.171a.559.559 0 0 0 .388-.14l2.189-1.66c.424.217.89.409 1.396.574l.435 2.856a.46.46 0 0 0 .178.333.585.585 0 0 0 .38.132h3.446c.3 0 .486-.145.559-.434.134-.518.284-1.48.45-2.887a8.857 8.857 0 0 0 1.412-.59l2.141 1.677c.145.093.28.139.404.139.227 0 .713-.367 1.458-1.102.745-.734 1.257-1.293 1.536-1.676a.517.517 0 0 0 .14-.357.599.599 0 0 0-.155-.388c-.745-.91-1.298-1.624-1.66-2.141.206-.383.408-.854.605-1.412l2.87-.435a.473.473 0 0 0 .311-.202.6.6 0 0 0 .124-.357v-3.445a.584.584 0 0 0-.124-.364zm-8.985 4.865A3.827 3.827 0 0 1 12 15.973a3.828 3.828 0 0 1-2.809-1.164A3.827 3.827 0 0 1 8.027 12c0-1.097.388-2.033 1.164-2.809A3.828 3.828 0 0 1 12 8.027c1.097 0 2.033.388 2.809 1.164A3.828 3.828 0 0 1 15.973 12a3.827 3.827 0 0 1-1.164 2.809z"/>
</svg>
