<svg xmlns="http://www.w3.org/2000/svg" width="23" height="20" viewBox="0 0 23 20">
    <path fill="current" fill-rule="evenodd" d="M22.089 7.393c-.607-1.495-1.425-2.783-2.451-3.863A11.53 11.53 0 0 0 15.967.95c-1.42-.64-2.91-.96-4.467-.96-1.557 0-3.046.32-4.467.96-1.42.64-2.643 1.499-3.67 2.58C2.336 4.61 1.519 5.898.91 7.393a12.369 12.369 0 0 0-.911 4.7c0 2.36.603 4.534 1.81 6.525a.772.772 0 0 0 .693.391h17.994c.3 0 .53-.13.693-.391 1.207-2 1.81-4.174 1.81-6.525 0-1.638-.304-3.205-.911-4.7zm-11.75-5.167A1.545 1.545 0 0 1 11.5 1.72c.454 0 .84.169 1.162.506.32.338.481.745.481 1.223 0 .477-.16.884-.482 1.222-.32.338-.707.507-1.161.507-.454 0-.84-.17-1.162-.507a1.711 1.711 0 0 1-.48-1.222c0-.478.16-.885.48-1.223zm-5.892 11.09c-.32.338-.708.507-1.161.507-.454 0-.84-.17-1.162-.507a1.71 1.71 0 0 1-.481-1.223c0-.477.16-.884.481-1.222.321-.338.708-.507 1.162-.507.453 0 .84.17 1.161.507.321.338.482.745.482 1.222 0 .478-.16.885-.482 1.223zm2.465-6.052a1.545 1.545 0 0 1-1.162.507c-.454 0-.84-.169-1.162-.507a1.71 1.71 0 0 1-.48-1.222c0-.477.16-.885.48-1.222a1.545 1.545 0 0 1 1.162-.507c.454 0 .84.17 1.162.507.32.337.48.745.48 1.222s-.16.885-.48 1.222zm7.27.115l-1.296 5.16c.428.306.736.716.924 1.23.188.513.214 1.04.077 1.58-.17.693-.552 1.22-1.142 1.58-.59.36-1.215.45-1.874.27s-1.16-.58-1.502-1.202a2.641 2.641 0 0 1-.256-1.972c.137-.54.406-.984.808-1.33.402-.347.86-.543 1.374-.588l1.296-5.16a.849.849 0 0 1 .385-.534.733.733 0 0 1 .616-.087.82.82 0 0 1 .494.398.892.892 0 0 1 .096.655zm1.906-.115a1.71 1.71 0 0 1-.481-1.222c0-.477.16-.885.482-1.222.32-.338.707-.507 1.161-.507.454 0 .84.17 1.162.507.32.337.481.745.481 1.222s-.16.885-.482 1.222c-.32.338-.707.507-1.161.507-.454 0-.84-.169-1.162-.507zm4.788 6.052c-.321.338-.708.507-1.162.507-.453 0-.84-.17-1.161-.507a1.71 1.71 0 0 1-.482-1.223c0-.477.16-.884.482-1.222.32-.338.708-.507 1.161-.507.454 0 .84.17 1.162.507.32.338.481.745.481 1.222 0 .478-.16.885-.481 1.223z"/>
</svg>
