<svg xmlns="http://www.w3.org/2000/svg" width="24" height="21" viewBox="0 0 24 21">
    <g fill="current" fill-rule="evenodd">
        <path fill="#FAFBFC" d="M-30-305h1580V715H-30z"/>
        <path fill="#FFF" stroke="#EBEDF8" d="M54.5 721.5v-966h-84.503a3.503 3.503 0 0 0-3.497 3.498v959.004a3.495 3.495 0 0 0 3.497 3.498H54.5z"/>
        <g fill="current">
            <path d="M6.509 10.276c.871-.43 1.705-.645 2.5-.645h10.565V7.458c0-.833-.28-1.548-.838-2.146-.559-.597-1.228-.896-2.006-.896H9.822v-.434c0-.833-.279-1.548-.838-2.146C8.426 1.24 7.757.94 6.978.94H2.915c-.779 0-1.447.299-2.006.897a3.031 3.031 0 0 0-.838 2.145v13.035c0 .037.002.093.006.17.005.077.007.134.007.17l.063-.081 4.28-5.377c.516-.652 1.21-1.193 2.082-1.623z"/>
            <path d="M23.592 11.546a1.627 1.627 0 0 0-.768-.177H9.01c-.559 0-1.166.16-1.822.482-.656.321-1.166.713-1.53 1.175l-4.266 5.377c-.263.317-.394.616-.394.896 0 .272.112.466.336.584.225.118.48.177.769.177h13.814c.559 0 1.166-.161 1.822-.482.656-.322 1.166-.713 1.53-1.175l4.266-5.377c.263-.317.394-.616.394-.897 0-.271-.112-.466-.337-.583z"/>
        </g>
    </g>
</svg>
