<svg xmlns="http://www.w3.org/2000/svg" width="22" height="20" viewBox="0 0 22 20">
    <g fill="current" fill-rule="evenodd">
        <path d="M2.112 6.492c.278.208 1.117.825 2.516 1.851 1.4 1.027 2.472 1.817 3.217 2.372.082.06.256.192.521.396.266.204.487.368.663.494.176.125.39.266.639.422.25.156.485.273.706.35.22.079.425.117.614.117h.024c.189 0 .393-.038.614-.116.221-.078.457-.195.706-.351.25-.156.463-.297.639-.422.176-.126.396-.29.662-.494.266-.204.44-.336.522-.396.753-.555 2.668-1.963 5.746-4.224a6.021 6.021 0 0 0 1.497-1.598C21.8 4.27 22 3.616 22 2.931a2.05 2.05 0 0 0-.583-1.468c-.39-.407-.85-.61-1.381-.61H1.964c-.63 0-1.115.224-1.455.675C.17 1.978 0 2.54 0 3.218c0 .545.225 1.136.675 1.773.45.637.93 1.137 1.437 1.5z"/>
        <path d="M20.772 7.882c-2.684 1.923-4.722 3.417-6.113 4.483-.467.364-.845.648-1.136.85-.29.205-.677.412-1.16.625-.483.212-.933.318-1.35.318h-.025c-.418 0-.868-.106-1.35-.318a6.877 6.877 0 0 1-1.16-.624 28.93 28.93 0 0 1-1.136-.851c-1.105-.858-3.14-2.352-6.102-4.483A6.628 6.628 0 0 1 0 6.752v10.317c0 .572.192 1.06.577 1.468.385.407.847.61 1.387.61h18.072c.54 0 1.002-.203 1.387-.61s.577-.896.577-1.468V6.752a6.905 6.905 0 0 1-1.228 1.13z"/>
    </g>
</svg>
