<svg xmlns="http://www.w3.org/2000/svg" width="270" height="93" viewBox="0 0 270 93">
    <g fill="none" fill-rule="evenodd">
        <g fill="#8A96A0" font-family="Helvetica" font-size="12" letter-spacing=".08" opacity=".7">
            <text transform="translate(1 72)">
                <tspan x="0" y="11">a</tspan>
            </text>
            <text transform="translate(1 72)">
                <tspan x="21" y="11">b</tspan>
            </text>
            <text transform="translate(1 72)">
                <tspan x="40" y="11">c</tspan>
            </text>
            <text transform="translate(1 72)">
                <tspan x="61" y="11">d</tspan>
            </text>
            <text transform="translate(1 72)">
                <tspan x="81" y="11">e</tspan>
            </text>
            <text transform="translate(1 72)">
                <tspan x="101" y="11">f</tspan>
            </text>
            <text transform="translate(1 72)">
                <tspan x="121" y="11">g</tspan>
            </text>
            <text transform="translate(1 72)">
                <tspan x="140" y="11">h</tspan>
            </text>
            <text transform="translate(1 72)">
                <tspan x="162" y="11">i</tspan>
            </text>
            <text transform="translate(1 72)">
                <tspan x="181" y="11">o</tspan>
            </text>
            <text transform="translate(1 72)">
                <tspan x="203" y="11">l</tspan>
            </text>
            <text transform="translate(1 72)">
                <tspan x="220" y="11">m</tspan>
            </text>
            <text transform="translate(1 72)">
                <tspan x="241" y="11">n</tspan>
            </text>
            <text transform="translate(1 72)">
                <tspan x="261" y="11">o</tspan>
            </text>
        </g>
        <g fill="#F0166D">
            <rect width="10" height="35" y="29" rx="2"/>
            <rect width="10" height="44" x="60" y="20" opacity=".5" rx="2"/>
            <rect width="10" height="25" x="80" y="39" rx="2"/>
            <rect width="10" height="40" x="20" y="24" opacity=".5" rx="2"/>
            <rect width="10" height="35" x="40" y="29" rx="2"/>
            <rect width="10" height="50" x="100" y="14" opacity=".5" rx="2"/>
            <rect width="10" height="64" x="120" rx="2"/>
            <rect width="10" height="35" x="140" y="29" opacity=".5" rx="2"/>
            <rect width="10" height="44" x="200" y="20" rx="2"/>
            <rect width="10" height="25" x="220" y="39" opacity=".5" rx="2"/>
            <rect width="10" height="40" x="160" y="24" rx="2"/>
            <rect width="10" height="35" x="180" y="29" opacity=".5" rx="2"/>
            <rect width="10" height="50" x="240" y="14" rx="2"/>
            <rect width="10" height="64" x="260" opacity=".5" rx="2"/>
        </g>
    </g>
</svg>
